# xmcd
#
# Track frame offsets: 
#        150
#        17288
#        26456
#        44064
#        58766
#        73042
#        81931
#        94446
#        109012
#        121608
#        139182
#        150968
#        163200
#        179407
#        195527
#        207352
#        220164
#        232034
#
# Disc length: 3240 seconds
#
# Revision: 0
# Processed by: cddbd v1.5.2PL0 Copyright (c) Steve Scherf et al.
# Submitted via: ExactAudioCopy v0.99pb5
#
DISCID=fa0ca612
DTITLE=Various Artist - COUNTRY STODOLA - 2
DYEAR=2001
DGENRE=Country
TTITLE0=ROBERT KRESTAN A DRUHÁ TRÁVA - El Santo Día (1997)
TTITLE1=JIRÍ SUCHÝ and GREENHORNS - Tam Za Morem Piva (Big Rock Candy Mo
TTITLE1=untain) (1999)
TTITLE2=CECHOMOR - Slunécko (2000)
TTITLE3=KAREL CERNOCH - Jarmark Ve Scaurbourgh (Scaurbourgh Fair) (200
TTITLE3=0)
TTITLE4=PACIFIK and PETR NOVOTNÝ - Drahousek (2000)
TTITLE5=ZALMAN and SPOL. - Rána V Tráve (2000)
TTITLE6=HONZA VYCÍTAL - To Tenkrát V Ctyricátom Pátom (1999)
TTITLE7=WABI DANEK - Písen, Co Me Ucil Lostopad (Live) (1999)
TTITLE8=PAVEL BOBEK - Pojd Stoupad Jak Dým (Don´t Bogart Me) (2000)
TTITLE9=JITKA MOLAVCOVÁ - Písnicky Dvoreckový (The Black Velvet Band) 
TTITLE9=(1999)
TTITLE10=IVAN MLÁ DEK - Zlaté Hodinky (2000)
TTITLE11=KAREL ZICH - Není Vsechno Paráda (1999)
TTITLE12=TAXMENI - Hobo Song (The Hobo Song) (1999)
TTITLE13=FRANTISEK NEDVED, HELENA MARSÁLKOVÁ and PACIFIK - Pulnoc Na Ras
TTITLE13=ách (1999)
TTITLE14=DUO CERVÁNEK - Kacák (1994-1999)
TTITLE15=FOLK TEAM - Káva A Caj (1991)
TTITLE16=KLÍC - Háde (1995)
TTITLE17=MIREK HOFFMANN A JIRÍ VEISSER and ZELENÁCI - Vsechno Má Svuj Ko
TTITLE17=nec (2000)
EXTD=
EXTT0=
EXTT1=
EXTT2=
EXTT3=
EXTT4=
EXTT5=
EXTT6=
EXTT7=
EXTT8=
EXTT9=
EXTT10=
EXTT11=
EXTT12=
EXTT13=
EXTT14=
EXTT15=
EXTT16=
EXTT17=
PLAYORDER=
